<svg width="88" height="73" viewBox="0 0 88 73" fill="none" xmlns="http://www.w3.org/2000/svg">
<path d="M43.7772 2.49948L43.8 2.50052L43.8228 2.49948L77.1666 0.97693C82.5778 0.729845 87.1 5.05024 87.1 10.467V62.6816C87.1 68.045 82.6631 72.345 77.3023 72.1769L23.8157 70.5002L23.7869 70.4993L23.7581 70.5018L11.4093 71.5395C5.661 72.0225 0.812369 67.313 1.12798 61.5531L2.49925 36.5274L2.50075 36.5L2.49925 36.4726L1.10424 11.0137C0.796591 5.3991 5.40614 0.747377 11.0234 1.00387L43.7772 2.49948Z" fill="white" stroke="#1C1C1D"/>
<path d="M27.8069 36.4964C28.4343 35.4097 30.0029 35.4097 30.6303 36.4964L36.7477 47.092C37.3751 48.1787 36.5908 49.5372 35.336 49.5372H23.1013C21.8464 49.5372 21.0622 48.1787 21.6896 47.092L27.8069 36.4964Z" fill="#1C1C1D"/>
<path d="M38.6765 32.0578C39.5223 30.6012 41.6367 30.6012 42.4824 32.0578L50.7285 46.2598C51.5742 47.7164 50.517 49.5372 48.8255 49.5372H32.3334C30.6419 49.5372 29.5847 47.7164 30.4305 46.2598L38.6765 32.0578Z" fill="#1C1C1D"/>
<path d="M50.3024 27.0854C51.3887 25.2144 54.1046 25.2144 55.191 27.0854L65.7829 45.3276C66.8692 47.1986 65.5113 49.5373 63.3386 49.5373H42.1548C39.9821 49.5373 38.6241 47.1986 39.7105 45.3276L50.3024 27.0854Z" fill="#1C1C1D"/>
<circle cx="32.4401" cy="26.4096" r="3.22134" fill="#1C1C1D"/>
</svg>
