<svg width="108" height="26" viewBox="0 0 108 26" fill="none" xmlns="http://www.w3.org/2000/svg">
<path d="M4.78688 21.1728C4.62119 21.1728 4.48687 21.0385 4.48687 20.8728L4.48688 17.4216H11.1976C11.3633 17.4216 11.4976 17.2873 11.4976 17.1216L11.4976 13.6481C11.4976 13.4825 11.3633 13.3481 11.1976 13.3481H4.48688V9.53034C4.48688 9.36465 4.62119 9.23034 4.78688 9.23034H11.1976C11.3633 9.23034 11.4976 9.09603 11.4976 8.93034L11.4976 5.4328C11.4976 5.26711 11.3633 5.1328 11.1976 5.1328L0.300001 5.13276C0.134315 5.13276 0 5.26707 0 5.43276V25.0549C0 25.2206 0.134315 25.3549 0.3 25.3549H5.74878H11.1976C11.3633 25.3549 11.4976 25.2206 11.4976 25.0549V21.4728C11.4976 21.3071 11.3633 21.1728 11.1976 21.1728L4.78688 21.1728Z" fill="#8C30F5"/>
<path d="M26.0916 1.29074C25.9677 1.33073 25.8837 1.44606 25.8837 1.57624V12.034C25.8837 12.3092 25.5295 12.4519 25.3141 12.2807C24.424 11.5732 23.2311 11.1613 21.7053 11.1613C18.0317 11.1613 15.0031 14.2843 15.0031 18.3306C15.0031 22.377 18.0317 25.5 21.7053 25.5C23.2311 25.5 24.424 25.0881 25.3141 24.3806C25.5295 24.2094 25.8837 24.3521 25.8837 24.6273V24.8198C25.8837 24.9855 26.0181 25.1198 26.1837 25.1198H29.7902C29.9558 25.1198 30.0902 24.9855 30.0902 24.8198V0.412082C30.0902 0.208514 29.8917 0.0640538 29.698 0.126588L26.0916 1.29074ZM22.5466 21.6438C20.6117 21.6438 19.2095 20.3674 19.2095 18.3306C19.2095 16.2939 20.6117 15.0175 22.5466 15.0175C24.4816 15.0175 25.8837 16.2939 25.8837 18.3306C25.8837 20.3674 24.4816 21.6438 22.5466 21.6438Z" fill="#8C30F5"/>
<path d="M40.8586 24.8212C42.281 24.8212 43.4384 24.4362 44.2417 23.8019C44.4677 23.6235 44.8687 23.7733 44.8687 24.0612V24.1935C44.8687 24.3372 44.9706 24.4607 45.1117 24.488L46.8317 24.8212L48.6883 25.3829C48.8809 25.4412 49.0752 25.297 49.0752 25.0958V9.30455C49.0752 9.0832 48.8436 8.93807 48.6444 9.03453L45.038 10.7807C44.9345 10.8308 44.8687 10.9357 44.8687 11.0507V18.2764C44.8687 20.2045 43.8031 21.0736 42.2607 21.0736C40.9147 21.0736 39.821 20.286 39.821 18.6023V9.31559C39.821 9.09157 39.5844 8.94658 39.3848 9.04831L37.1569 10.1838L35.7937 10.7838C35.6848 10.8317 35.6146 10.9395 35.6146 11.0584V19.1997C35.6146 22.8659 38.0262 24.8212 40.8586 24.8212Z" fill="#8C30F5"/>
<path d="M96.748 24.5212C96.748 24.6868 96.8823 24.8212 97.048 24.8212H100.654C100.82 24.8212 100.954 24.6868 100.954 24.5212V16.226L105.599 14.2416C105.677 14.2083 105.737 14.1435 105.765 14.0634L106.901 10.7644C106.986 10.517 106.736 10.2867 106.496 10.3921L100.954 12.8315V8.56845C100.954 8.3474 100.723 8.20226 100.524 8.29813L96.9178 10.034C96.814 10.084 96.748 10.1891 96.748 10.3044V24.5212Z" fill="#8C30F5"/>
<path d="M58.3771 24.8149C58.3808 24.9845 58.2447 25.1198 58.075 25.1198H54.4552C54.2896 25.1198 54.1552 24.9867 54.1551 24.821C54.1522 21.965 54.1131 15.1544 54.1521 11.1706C54.1537 11.0036 54.0188 10.8689 53.8518 10.8689H52.1794C52.0138 10.8689 51.8794 10.7346 51.8794 10.5689V8.15494C51.8794 7.98925 52.0138 7.85494 52.1794 7.85494H53.8165C53.9794 7.85494 54.1126 7.72494 54.1165 7.56208L54.2591 1.56872C54.2621 1.4422 54.3442 1.33118 54.4643 1.29121L57.9439 0.133056C58.1396 0.0679298 58.3411 0.215087 58.3387 0.421296L58.2565 7.27804C58.2544 7.45833 58.4106 7.59978 58.5898 7.57978L60.5989 7.35556C60.7758 7.33581 60.9309 7.47367 60.9321 7.65174L60.9497 10.3299C60.9508 10.4963 60.8162 10.6319 60.6497 10.6319H58.6437C58.478 10.6319 58.3437 10.7601 58.3435 10.9258C58.3413 13.1412 58.3212 22.3126 58.3771 24.8149Z" fill="#8C30F5"/>
<path d="M83.5733 24.3076C84.9373 24.3076 86.0576 23.9536 86.8556 23.3653C87.1167 23.1728 87.5835 23.3404 87.5835 23.6582C87.5835 23.8147 87.6976 23.9495 87.8561 23.9802L89.5465 24.3076L91.2438 24.8212C91.5147 24.9031 91.7899 24.7072 91.7899 24.4324V8.97149C91.7899 8.66867 91.4608 8.47171 91.1812 8.60714L87.816 10.2365C87.6735 10.3055 87.5835 10.4466 87.5835 10.6009V17.7628C87.5835 19.691 86.5178 20.56 84.9755 20.56C83.6294 20.56 82.5358 19.7724 82.5358 18.0887V8.98711C82.5358 8.68057 82.1993 8.48386 81.9192 8.62663L79.8717 9.67019L78.5759 10.2406C78.4257 10.3067 78.3293 10.4517 78.3293 10.6114V18.6862C78.3293 22.3523 80.741 24.3076 83.5733 24.3076Z" fill="#8C30F5"/>
<path d="M76.8158 17.458C76.0026 19.2165 72.9136 24.2033 69.696 25.1043C66.6214 25.9652 62.8586 21.6382 62.1902 18.8226C62.0874 18.3895 61.981 17.9921 62.031 17.6549C62.036 17.6212 62.0373 17.5871 62.033 17.5534C61.9659 17.0266 62.0184 16.4668 62.0398 15.8924C62.1606 12.6528 63.8208 8.94958 67.6246 8.10429C71.2066 7.30829 74.2958 11.5026 74.7936 14.0067C74.8244 14.1621 74.7174 14.3067 74.5623 14.3387C69.104 15.4644 64.3133 19.0693 66.1246 20.1043C69.6026 22.0917 69.6244 21.1167 71.5871 20.1231C71.6115 20.1108 71.6348 20.095 71.655 20.0767L74.4386 17.5556C74.4788 17.5192 74.5281 17.4944 74.5812 17.4837L76.5133 17.0973C76.7346 17.0531 76.9105 17.2532 76.8158 17.458Z" fill="#8C30F5"/>
<path d="M66.0903 13.8926C65.8471 13.9369 65.6571 13.6844 65.7708 13.4649C66.733 11.6059 68.1491 9.50741 70.6998 12.6167C70.8413 12.7892 70.7418 13.0469 70.5224 13.0868L66.0903 13.8926Z" fill="white" fill-opacity="0.4"/>
</svg>
